# File created by Blade
# Date/Time:  Thu Sep 25 15:31:15 2014
# Frame Rate: 120.000 fps
#------------------------------------------------------
:FULLY-SPECIFIED
:DEGREES
541
root -10.811812 35.402859 0.006083 211.964015 -58.871376 -26.376983
Spine -36.450814 18.567391 -7.402558
Head -79.399940 7.635498 -2.020670
LeftShoulder -18.689401 -5.261989 29.093475
LeftArm 94.935584 -45.810204 -62.657996
LeftForeArm 13.323765 0.000000 27.602508
LeftHand -43.360744 -0.000000 91.343132
LeftHandThumb1 -26.253704 0.000000 33.147579
RightShoulder -10.361476 22.439724 -32.634002
RightArm 90.546697 37.288489 47.186357
RightForeArm -7.532429 -0.000000 25.409410
RightHand -8.139870 -0.000000 -74.354490
RightHandThumb1 -24.326973 -0.000000 -32.862282
LeftUpLeg -62.388068 27.761526 33.186280
LeftLeg 9.799681 -0.000000 -0.000000
LeftFoot 30.361134 32.828960 -7.421288
LeftToeBase 7.270046 -0.000000 -0.000000
RightUpLeg 24.326870 -5.904991 -31.969666
RightLeg 12.816555 -0.000000 -0.000000
RightFoot 40.020822 1.022681 -5.320707
RightToeBase 13.627467 -0.000000 -0.000000
542
root -10.936564 35.441403 0.019278 211.998166 -59.120737 -25.912618
Spine -36.628399 18.676509 -7.266257
Head -79.565477 7.384304 -2.172459
LeftShoulder -18.833642 -5.361657 29.080388
LeftArm 94.317233 -45.993168 -61.476143
LeftForeArm 12.306436 -0.000000 27.083491
LeftHand -43.766113 -0.000000 91.389765
LeftHandThumb1 -26.253704 0.000000 33.147579
RightShoulder -10.421354 22.297294 -32.596630
RightArm 90.999592 37.615099 47.334266
RightForeArm -7.573297 -0.000000 25.148433
RightHand -7.982256 -0.000000 -74.195314
RightHandThumb1 -24.326973 -0.000000 -32.862282
LeftUpLeg -61.941246 27.066907 33.817201
LeftLeg 9.943177 -0.000000 -0.000000
LeftFoot 30.553386 33.435958 -8.022379
LeftToeBase 7.608029 -0.000000 -0.000000
RightUpLeg 24.856266 -5.300925 -32.202617
RightLeg 13.348344 -0.000000 -0.000000
RightFoot 40.072276 1.146545 -5.583441
RightToeBase 12.961654 -0.000000 -0.000000
543
root -11.055803 35.479070 0.028356 212.003440 -59.457243 -25.520545
Spine -36.713342 18.707111 -7.142170
Head -79.763990 7.339579 -2.233349
LeftShoulder -19.158078 -5.481854 29.365893
LeftArm 93.683065 -45.795469 -60.772428
LeftForeArm 11.291874 0.000000 26.791290
LeftHand -42.966199 -0.000000 91.570406
LeftHandThumb1 -26.253704 0.000000 33.147579
RightShoulder -10.434911 22.222648 -32.516012
RightArm 91.500585 37.862216 47.913963
RightForeArm -7.969141 -0.000000 25.170031
RightHand -7.806762 0.000000 -73.847909
RightHandThumb1 -24.326973 -0.000000 -32.862282
LeftUpLeg -61.629653 26.440445 34.112476
LeftLeg 9.945537 -0.000000 -0.000000
LeftFoot 30.768838 33.613195 -8.697149
LeftToeBase 8.038079 -0.000000 -0.000000
RightUpLeg 25.513371 -4.730564 -32.398279
RightLeg 13.789490 -0.000000 -0.000000
RightFoot 40.160334 1.424987 -5.702040
RightToeBase 12.705589 -0.000000 -0.000000
544
root -11.175260 35.508592 0.040379 212.036006 -59.795951 -25.131202
Spine -36.861225 18.946357 -7.074622
Head -79.959246 7.060940 -2.496635
LeftShoulder -19.133195 -5.889025 29.519670
LeftArm 92.919653 -45.609353 -60.185167
LeftForeArm 10.748589 -0.000000 26.814762
LeftHand -43.159885 -0.000000 91.442594
LeftHandThumb1 -26.253704 0.000000 33.147579
RightShoulder -10.629371 21.961334 -32.560313
RightArm 92.189403 38.080298 48.661661
RightForeArm -8.552032 -0.000000 25.210513
RightHand -7.665986 0.000000 -73.504506
RightHandThumb1 -24.326973 -0.000000 -32.862282
LeftUpLeg -61.479444 25.989695 34.046937
LeftLeg 9.738738 -0.000000 -0.000000
LeftFoot 31.382951 33.343764 -8.876863
LeftToeBase 8.262572 -0.000000 -0.000000
RightUpLeg 26.088779 -4.118040 -32.503692
RightLeg 14.196102 -0.000000 -0.000000
RightFoot 40.356093 1.742740 -5.723477
RightToeBase 12.708174 -0.000000 -0.000000
545
root -11.294815 35.536372 0.040376 211.785063 -60.122558 -24.479955
Spine -36.923066 19.253893 -6.831867
Head -80.179687 6.825955 -2.770442
LeftShoulder -19.152299 -6.055237 29.557497
LeftArm 92.608216 -45.485451 -60.115042
LeftForeArm 10.516095 0.000000 26.998618
LeftHand -43.411452 0.000000 91.248777
LeftHandThumb1 -26.253704 0.000000 33.147579
RightShoulder -10.821004 21.970389 -32.806319
RightArm 92.593025 38.103225 49.579068
RightForeArm -9.292979 -0.000000 25.611052
RightHand -7.792624 0.000000 -73.303056
RightHandThumb1 -24.326973 -0.000000 -32.862282
LeftUpLeg -61.471625 25.930261 33.576943
LeftLeg 9.488818 -0.000000 -0.000000
LeftFoot 31.935024 32.597893 -8.879613
LeftToeBase 8.393386 -0.000000 -0.000000
RightUpLeg 26.612315 -3.280795 -32.339480
RightLeg 14.582351 -0.000000 -0.000000
RightFoot 40.623782 1.870433 -5.557401
RightToeBase 12.886873 -0.000000 -0.000000
546
root -11.414514 35.554159 0.037957 211.545184 -60.434803 -23.852313
Spine -36.989097 19.601798 -6.640319
Head -80.497470 6.630007 -3.135653
LeftShoulder -19.078136 -6.286455 29.454634
LeftArm 92.282214 -45.424340 -59.806436
LeftForeArm 10.016487 -0.000000 27.107671
LeftHand -43.446156 0.000000 91.189441
LeftHandThumb1 -26.253704 0.000000 33.147579
RightShoulder -10.941336 21.731981 -32.749740
RightArm 93.174464 38.407097 50.043273
RightForeArm -9.842606 -0.000000 25.780360
RightHand -7.750658 -0.000000 -73.098354
RightHandThumb1 -24.326973 -0.000000 -32.862282
LeftUpLeg -61.390191 25.908584 33.055090
LeftLeg 9.027470 -0.000000 -0.000000
LeftFoot 32.468589 31.841021 -8.901059
LeftToeBase 8.550698 -0.000000 -0.000000
RightUpLeg 27.092877 -2.559188 -32.192631
RightLeg 14.883974 -0.000000 -0.000000
RightFoot 41.093928 2.007446 -5.411486
RightToeBase 12.962874 -0.000000 -0.000000
